RBDS016runT25_grf
version=1
nRows=24
nColumns=19
inDegrees=no
endheader
time	ground_force_r_vx	ground_force_r_vy	ground_force_r_vz	ground_force_r_px	ground_force_r_py	ground_force_r_pz	ground_force_r_mx	ground_force_r_my	ground_force_r_mz	ground_force_l_vx	ground_force_l_vy	ground_force_l_vz	ground_force_l_px	ground_force_l_py	ground_force_l_pz	ground_force_l_mx	ground_force_l_my	ground_force_l_mz
     14.99900000	      0.00000000	      0.00000000	      0.00000000	      0.00000000	      0.00000000	      0.00000000	      0.00000000	      0.00000000	      0.00000000	   -115.49824725	   1629.22825942	     85.14184236	      2.41140171	      0.00000000	      0.99173976	      0.00000000	      7.65015403	      0.00000000
     15.00000000	      0.00000000	      0.00000000	      0.00000000	      0.00000000	      0.00000000	      0.00000000	      0.00000000	      0.00000000	      0.00000000	   -113.18963240	   1634.26871744	     86.00955635	      2.40960799	      0.00000000	      0.99156200	      0.00000000	      7.71060413	      0.00000000
     15.00100000	      0.00000000	      0.00000000	      0.00000000	      0.00000000	      0.00000000	      0.00000000	      0.00000000	      0.00000000	      0.00000000	   -110.62934076	   1638.14541463	     86.79583772	      2.40778360	      0.00000000	      0.99138345	      0.00000000	      7.76392673	      0.00000000
     15.00200000	      0.00000000	      0.00000000	      0.00000000	      0.00000000	      0.00000000	      0.00000000	      0.00000000	      0.00000000	      0.00000000	   -108.06904912	   1642.02211182	     87.58211910	      2.40595920	      0.00000000	      0.99120490	      0.00000000	      7.81724932	      0.00000000
     15.00300000	      0.00000000	      0.00000000	      0.00000000	      0.00000000	      0.00000000	      0.00000000	      0.00000000	      0.00000000	      0.00000000	   -105.50875747	   1645.89880901	     88.36840047	      2.40413481	      0.00000000	      0.99102635	      0.00000000	      7.87057191	      0.00000000
     15.00400000	      0.00000000	      0.00000000	      0.00000000	      0.00000000	      0.00000000	      0.00000000	      0.00000000	      0.00000000	      0.00000000	   -102.80977034	   1648.95036826	     89.09125657	      2.40229583	      0.00000000	      0.99084750	      0.00000000	      7.91896563	      0.00000000
     15.00500000	      0.00000000	      0.00000000	      0.00000000	      0.00000000	      0.00000000	      0.00000000	      0.00000000	      0.00000000	      0.00000000	   -100.04143545	   1651.58935854	     89.78240003	      2.40044956	      0.00000000	      0.99066848	      0.00000000	      7.96489491	      0.00000000
     15.00600000	      0.00000000	      0.00000000	      0.00000000	      0.00000000	      0.00000000	      0.00000000	      0.00000000	      0.00000000	      0.00000000	    -97.27310057	   1654.22834882	     90.47354350	      2.39860328	      0.00000000	      0.99048947	      0.00000000	      8.01082419	      0.00000000
     15.00700000	      0.00000000	      0.00000000	      0.00000000	      0.00000000	      0.00000000	      0.00000000	      0.00000000	      0.00000000	      0.00000000	    -94.44996649	   1656.43221292	     91.12852447	      2.39675260	      0.00000000	      0.99031038	      0.00000000	      8.05423662	      0.00000000
     15.00800000	      0.00000000	      0.00000000	      0.00000000	      0.00000000	      0.00000000	      0.00000000	      0.00000000	      0.00000000	      0.00000000	    -91.51723399	   1657.76582466	     91.71118048	      2.39489309	      0.00000000	      0.99013114	      0.00000000	      8.09261536	      0.00000000
     15.00900000	      0.00000000	      0.00000000	      0.00000000	      0.00000000	      0.00000000	      0.00000000	      0.00000000	      0.00000000	      0.00000000	    -88.58450150	   1659.09943640	     92.29383648	      2.39303358	      0.00000000	      0.98995189	      0.00000000	      8.13099409	      0.00000000
     15.01000000	      0.00000000	      0.00000000	      0.00000000	      0.00000000	      0.00000000	      0.00000000	      0.00000000	      0.00000000	      0.00000000	    -85.65176900	   1660.43304814	     92.87649248	      2.39117407	      0.00000000	      0.98977265	      0.00000000	      8.16937282	      0.00000000
     15.01100000	      0.00000000	      0.00000000	      0.00000000	      0.00000000	      0.00000000	      0.00000000	      0.00000000	      0.00000000	      0.00000000	    -82.59687321	   1660.40320879	     93.33799093	      2.38930957	      0.00000000	      0.98959336	      0.00000000	      8.20013778	      0.00000000
     15.01200000	      0.00000000	      0.00000000	      0.00000000	      0.00000000	      0.00000000	      0.00000000	      0.00000000	      0.00000000	      0.00000000	    -79.54197741	   1660.37336943	     93.79948938	      2.38744506	      0.00000000	      0.98941408	      0.00000000	      8.23090274	      0.00000000
     15.01300000	      0.00000000	      0.00000000	      0.00000000	      0.00000000	      0.00000000	      0.00000000	      0.00000000	      0.00000000	      0.00000000	    -76.48708161	   1660.34353007	     94.26098784	      2.38558055	      0.00000000	      0.98923479	      0.00000000	      8.26166770	      0.00000000
     15.01400000	      0.00000000	      0.00000000	      0.00000000	      0.00000000	      0.00000000	      0.00000000	      0.00000000	      0.00000000	      0.00000000	    -73.37713784	   1659.37446251	     94.63394312	      2.38371776	      0.00000000	      0.98905560	      0.00000000	      8.28736699	      0.00000000
     15.01500000	      0.00000000	      0.00000000	      0.00000000	      0.00000000	      0.00000000	      0.00000000	      0.00000000	      0.00000000	      0.00000000	    -70.23967009	   1657.93578084	     94.96262681	      2.38185582	      0.00000000	      0.98887647	      0.00000000	      8.31053345	      0.00000000
     15.01600000	      0.00000000	      0.00000000	      0.00000000	      0.00000000	      0.00000000	      0.00000000	      0.00000000	      0.00000000	      0.00000000	    -67.10220234	   1656.49709917	     95.29131051	      2.37999388	      0.00000000	      0.98869733	      0.00000000	      8.33369990	      0.00000000
     15.01700000	      0.00000000	      0.00000000	      0.00000000	      0.00000000	      0.00000000	      0.00000000	      0.00000000	      0.00000000	      0.00000000	    -63.94919602	   1654.57879777	     95.57228469	      2.37813502	      0.00000000	      0.98851832	      0.00000000	      8.35435977	      0.00000000
     15.01800000	      0.00000000	      0.00000000	      0.00000000	      0.00000000	      0.00000000	      0.00000000	      0.00000000	      0.00000000	      0.00000000	    -60.76511256	   1651.70125693	     95.75783984	      2.37628231	      0.00000000	      0.98833956	      0.00000000	      8.37000645	      0.00000000
     15.01900000	      0.00000000	      0.00000000	      0.00000000	      0.00000000	      0.00000000	      0.00000000	      0.00000000	      0.00000000	      0.00000000	    -57.58102909	   1648.82371608	     95.94339499	      2.37442960	      0.00000000	      0.98816080	     -0.00000000	      8.38565313	      0.00000000
     15.02000000	      0.00000000	      0.00000000	      0.00000000	      0.00000000	      0.00000000	      0.00000000	      0.00000000	      0.00000000	      0.00000000	    -54.39694563	   1645.94617524	     96.12895013	      2.37257689	      0.00000000	      0.98798204	     -0.00000000	      8.40129981	      0.00000000
     15.02100000	      0.00000000	      0.00000000	      0.00000000	      0.00000000	      0.00000000	      0.00000000	      0.00000000	      0.00000000	      0.00000000	    -51.19784937	   1641.61730784	     96.16271959	      2.37073896	      0.00000000	      0.98780395	     -0.00000000	      8.40955501	      0.00000000
     15.02200000	      0.00000000	      0.00000000	      0.00000000	      0.00000000	      0.00000000	      0.00000000	      0.00000000	      0.00000000	      0.00000000	    -47.99875312	   1637.28844045	     96.19648905	      2.36890103	      0.00000000	      0.98762586	     -0.00000000	      8.41781020	      0.00000000
